HIERARCHY
ROOT Model_Hips
{
	OFFSET 0.000000 96.915077 0.000000
	CHANNELS 6 Xposition Yposition Zposition Xrotation Yrotation Zrotation
	JOINT Model_Spine
	{
		OFFSET 0.000000 11.137703 -1.289900
		CHANNELS 3 Xrotation Yrotation Zrotation
		JOINT Model_Spine1
		{
			OFFSET 0.000000 12.993942 -1.504922
			CHANNELS 3 Xrotation Yrotation Zrotation
			JOINT Model_Spine2
			{
				OFFSET 0.000000 14.850220 -1.719911
				CHANNELS 3 Xrotation Yrotation Zrotation
				JOINT Model_Neck
				{
					OFFSET 0.000000 16.706543 -1.934903
					CHANNELS 3 Xrotation Yrotation Zrotation
					JOINT Model_Head
					{
						OFFSET 0.000000 10.471298 2.002100
						CHANNELS 3 Xrotation Yrotation Zrotation
						JOINT Model_HeadTop_End
						{
							OFFSET 0.000000 20.842606 3.985100
							CHANNELS 3 Xrotation Yrotation Zrotation
							End Site
							{
								OFFSET 0.000000 21.220154 0.000000
							}
						}
					}
				}
				JOINT Model_LeftShoulder
				{
					OFFSET 7.008500 14.768600 -1.919946
					CHANNELS 3 Xrotation Yrotation Zrotation
					JOINT Model_LeftArm
					{
						OFFSET 14.126271 -3.718048 0.029937
						CHANNELS 3 Xrotation Yrotation Zrotation
						JOINT Model_LeftForeArm
						{
							OFFSET 28.282801 0.000000 0.000000
							CHANNELS 3 Xrotation Yrotation Zrotation
							JOINT Model_LeftHand
							{
								OFFSET 26.204689 0.000000 0.000000
								CHANNELS 3 Xrotation Yrotation Zrotation
								End Site
								{
									OFFSET 26.204704 0.000000 0.000000
								}
							}
						}
					}
				}
				JOINT Model_RightShoulder
				{
					OFFSET -7.008500 14.768555 -1.949840
					CHANNELS 3 Xrotation Yrotation Zrotation
					JOINT Model_RightArm
					{
						OFFSET -14.126281 -3.718018 -0.029932
						CHANNELS 3 Xrotation Yrotation Zrotation
						JOINT Model_RightForeArm
						{
							OFFSET -28.283798 0.000000 -0.000001
							CHANNELS 3 Xrotation Yrotation Zrotation
							JOINT Model_RightHand
							{
								OFFSET -26.204193 0.000000 -0.000001
								CHANNELS 3 Xrotation Yrotation Zrotation
								End Site
								{
									OFFSET -26.204208 0.000000 -0.000001
								}
							}
						}
					}
				}
			}
		}
	}
	JOINT Model_LeftUpLeg
	{
		OFFSET 8.327700 -6.193199 -0.402800
		CHANNELS 3 Xrotation Yrotation Zrotation
		JOINT Model_LeftLeg
		{
			OFFSET 0.735802 -42.108742 -0.610721
			CHANNELS 3 Xrotation Yrotation Zrotation
			JOINT Model_LeftFoot
			{
				OFFSET -0.735806 -36.833748 -0.172876
				CHANNELS 3 Xrotation Yrotation Zrotation
				JOINT Model_LeftToeBase
				{
					OFFSET -0.565857 -11.977769 16.297714
					CHANNELS 3 Xrotation Yrotation Zrotation
					JOINT Model_LeftToe_End
					{
						OFFSET -0.111712 -0.312793 7.857784
						CHANNELS 3 Xrotation Yrotation Zrotation
						End Site
						{
							OFFSET -0.111712 -0.312793 7.857784
						}
					}
				}
			}
		}
	}
	JOINT Model_RightUpLeg
	{
		OFFSET -8.327700 -6.193199 -0.516500
		CHANNELS 3 Xrotation Yrotation Zrotation
		JOINT Model_RightLeg
		{
			OFFSET -0.735785 -42.108738 -0.434061
			CHANNELS 3 Xrotation Yrotation Zrotation
			JOINT Model_RightFoot
			{
				OFFSET 0.735776 -36.833748 -0.021630
				CHANNELS 3 Xrotation Yrotation Zrotation
				JOINT Model_RightToeBase
				{
					OFFSET 0.565817 -11.977745 15.903093
					CHANNELS 3 Xrotation Yrotation Zrotation
					JOINT Model_RightToe_End
					{
						OFFSET 0.111702 -0.312791 7.811342
						CHANNELS 3 Xrotation Yrotation Zrotation
						End Site
						{
							OFFSET 0.111702 -0.312791 7.811342
						}
					}
				}
			}
		}
	}
}
MOTION
Frames: 7
Frame Time: 0.016667
-19.577051 86.533630 136.058762 4.075799 -13.975150 12.249652 13.045434 -17.000957 0.165553 0.875839 -4.564853 -0.849559 0.944228 -4.513868 -0.831301 -7.174455 -0.707205 -1.618329 -7.184660 -0.733194 -1.492101 -0.000000 0.000000 -0.000000 1.474207 -10.777741 -16.727514 -5.334946 -28.770895 -36.627948 0.000678 -91.154687 0.000334 -0.000001 -0.000000 0.000000 1.345873 -3.250265 9.634162 43.711220 -5.464620 65.114051 0.000015 18.877046 0.000011 0.000001 -0.000001 -0.000004 -2.381030 2.288426 8.951094 40.790634 -3.328554 3.909107 -28.663500 -12.140322 -8.586221 -18.999732 0.000001 -0.000003 -0.000000 -0.000001 -0.000001 -55.084410 -1.522453 6.017324 129.863561 6.242690 0.542440 23.358325 -0.216506 6.056809 10.065260 -0.000002 -0.000004 0.000001 0.000001 0.000001 
-21.963717 87.666489 141.273697 4.233593 -15.763829 10.816650 13.495630 -17.981571 2.182493 0.591872 -4.924137 -0.646886 0.660276 -4.879038 -0.617504 -7.444804 -0.437947 -1.466279 -7.453563 -0.452087 -1.331064 0.000001 0.000001 -0.000000 1.708173 -9.630142 -15.435461 -6.088629 -30.421283 -36.118884 0.000108 -98.198989 0.000079 -0.000003 0.000000 0.000000 1.277726 -2.517013 8.385428 48.031260 -6.485757 65.914228 -0.000004 21.222117 0.000005 -0.000003 -0.000003 -0.000002 2.761165 4.640985 11.131665 35.379861 -3.457963 3.462944 -19.549282 -14.526380 -8.480689 -24.616321 0.228404 -3.328181 0.000000 0.000002 -0.000001 -59.161350 -2.545950 8.667303 124.292463 4.527678 0.341881 19.510345 -1.757080 4.901355 9.939434 -0.000006 -0.000010 0.000000 0.000001 -0.000001 
-24.368166 88.783333 146.357773 4.670466 -17.982187 9.758362 13.883443 -18.651864 3.872840 0.209761 -5.189288 -0.423436 0.277569 -5.151573 -0.377245 -7.735304 -0.167227 -1.373197 -7.742594 -0.173628 -1.230624 0.000001 -0.000001 0.000000 1.905176 -8.152056 -14.725157 -7.072716 -31.375034 -35.038167 0.000040 -104.732201 0.000027 0.000002 0.000000 -0.000000 1.250037 -1.672678 7.564485 51.337956 -7.143915 65.967224 0.000021 23.050080 -0.000002 -0.000000 -0.000003 -0.000003 7.145064 7.138545 12.608624 29.649943 -3.369260 2.327665 -6.616739 -16.257754 -7.138379 -33.515735 1.457950 -6.122784 0.000000 -0.000002 0.000000 -62.568283 -3.000675 11.114465 117.753950 3.577058 0.328013 16.898960 -2.602380 3.792782 9.045536 -0.000000 -0.000012 -0.000000 0.000001 0.000001 
-26.798597 89.893784 151.320099 5.407971 -20.331735 9.234961 14.024201 -19.127610 5.079313 -0.214931 -5.381753 -0.182974 -0.146928 -5.352164 -0.117412 -8.024060 0.092415 -1.361797 -8.030726 0.088181 -1.213125 -0.000000 -0.000002 0.000000 2.068356 -6.607936 -14.670816 -8.279825 -31.848168 -33.448181 0.000054 -110.498746 0.000015 -0.000005 0.000001 -0.000001 1.250352 -0.913185 7.274728 53.636936 -7.522746 65.192168 -0.000002 24.332349 -0.000001 -0.000001 -0.000004 -0.000000 12.412907 9.747959 12.486260 20.264538 -3.760273 1.234785 10.884629 -16.835168 -4.338050 -47.810341 3.107953 -5.206936 -0.000001 0.000002 0.000000 -65.189675 -2.970124 13.050449 110.095614 3.232133 0.455782 15.984471 -2.831873 3.282750 7.684913 -0.000009 -0.000004 -0.000002 -0.000001 -0.000001 
-29.296772 91.051796 156.229202 6.396026 -22.537428 9.291691 13.764336 -19.499012 5.736427 -0.597670 -5.520821 0.050562 -0.528307 -5.498932 0.132399 -8.285747 0.325695 -1.435634 -8.293063 0.318315 -1.281973 0.000001 0.000000 -0.000000 2.215925 -5.258893 -15.187387 -9.578919 -32.019783 -31.521975 0.000004 -115.270439 -0.000017 0.000003 0.000000 0.000000 1.257057 -0.456486 7.480467 55.023147 -7.627785 63.785047 0.000004 25.128666 0.000016 -0.000002 -0.000000 0.000001 19.420149 11.879315 11.067177 7.658084 -3.862277 0.222332 26.596999 -16.138868 -2.773614 -48.139757 4.036128 -5.513987 -0.000002 -0.000003 0.000001 -66.743249 -2.585771 14.204102 101.214224 2.919329 0.704160 16.455070 -2.660643 3.692255 6.200000 0.000000 -0.000012 -0.000001 -0.000001 0.000000 
-31.910646 92.296722 161.173416 7.482174 -24.421215 9.833874 13.054035 -19.795963 5.883218 -0.852322 -5.616016 0.238841 -0.781247 -5.600267 0.327991 -8.494127 0.515631 -1.578264 -8.503346 0.501593 -1.420937 -0.000000 -0.000001 0.000000 2.349304 -4.295190 -16.039248 -10.740251 -31.972874 -29.549232 0.000055 -118.841658 0.000049 0.000003 0.000003 -0.000001 1.261860 -0.459992 8.047143 55.599768 -7.452042 62.090135 0.000014 25.466198 -0.000003 0.000001 0.000001 0.000000 19.456999 11.551296 10.821464 12.041024 -2.009708 -0.441814 27.200994 -14.614822 -2.086744 -20.656304 2.308574 -8.445155 0.000005 -0.000003 0.000002 -66.903130 -2.120212 14.515706 91.219253 2.306437 1.101376 17.311200 -2.435504 4.164629 4.857599 0.000000 0.000004 0.000001 0.000003 -0.000000 
-34.675220 93.615128 166.224396 8.437967 -25.940707 10.668854 11.974539 -19.986020 5.626722 -0.922420 -5.666604 0.345109 -0.850696 -5.654684 0.429251 -8.626068 0.647793 -1.760920 -8.637992 0.626279 -1.601799 -0.000000 0.000003 -0.000000 2.446893 -3.795102 -16.916408 -11.495030 -31.688137 -27.870068 0.000003 -121.064051 0.000009 0.000002 0.000001 -0.000001 1.274650 -0.955980 8.806800 55.450406 -7.026007 60.468682 0.000006 25.323850 0.000005 0.000002 -0.000003 -0.000002 20.722570 10.582372 9.786123 15.198783 0.475082 -0.750598 25.568741 -12.960719 -0.557327 0.714330 0.000009 -0.000006 0.000001 0.000000 -0.000003 -65.500093 -1.855607 14.104727 80.399632 1.700688 1.713048 17.382942 -2.466903 3.697130 3.801522 -0.000003 0.000003 -0.000002 0.000000 -0.000003 
